<svg width="433" height="360" viewBox="0 0 433 360" fill="none" xmlns="http://www.w3.org/2000/svg">
<path d="M44 181.856C49.5292 37.363 100.949 8.96197 198.813 1.25993C398.963 -14.4922 397.857 120.641 381.271 226.394C367.891 311.695 322.848 359.417 224.19 359.417C81.4927 359.417 44 267.949 44 181.856Z" fill="#20484F"/>
<g filter="url(#filter0_d_2203_2199)">
<rect x="34" y="108" width="364.506" height="129.94" rx="10.1252" fill="white"/>
</g>
<circle cx="87.1572" cy="158.626" r="27.0005" fill="#DCF2ED"/>
<g clip-path="url(#clip0_2203_2199)">
<path d="M83.5725 163.611L78.588 158.626L76.8906 160.312L83.5725 166.994L97.9165 152.65L96.2311 150.964L83.5725 163.611Z" fill="#20484F"/>
</g>
<path d="M135.246 152.625H138V147.057H140.876C141.902 147.057 142.806 146.874 143.589 146.51C144.372 146.132 144.987 145.585 145.432 144.87C145.891 144.154 146.121 143.297 146.121 142.298C146.121 141.272 145.898 140.408 145.452 139.706C145.007 139.004 144.386 138.47 143.589 138.106C142.806 137.728 141.902 137.539 140.876 137.539H135.246V152.625ZM138 144.627V139.969H140.916C141.659 139.969 142.253 140.178 142.698 140.597C143.144 141.015 143.367 141.582 143.367 142.298C143.367 143 143.144 143.567 142.698 143.999C142.253 144.417 141.659 144.627 140.916 144.627H138ZM148.155 152.625H150.807V146.49C150.807 145.653 151.037 145.005 151.496 144.546C151.968 144.073 152.576 143.837 153.318 143.837H154.27V141.488H153.622C152.947 141.488 152.353 141.609 151.84 141.852C151.327 142.095 150.929 142.534 150.645 143.169V141.609H148.155V152.625ZM161.115 152.868C162.182 152.868 163.154 152.625 164.031 152.139C164.909 151.64 165.611 150.958 166.137 150.094C166.664 149.217 166.927 148.224 166.927 147.117C166.927 146.01 166.664 145.025 166.137 144.161C165.624 143.297 164.929 142.615 164.052 142.116C163.174 141.616 162.195 141.366 161.115 141.366C160.022 141.366 159.036 141.616 158.159 142.116C157.281 142.615 156.579 143.297 156.053 144.161C155.54 145.025 155.283 146.01 155.283 147.117C155.283 148.224 155.54 149.21 156.053 150.074C156.579 150.938 157.281 151.62 158.159 152.119C159.05 152.619 160.035 152.868 161.115 152.868ZM161.115 150.438C160.521 150.438 159.988 150.297 159.515 150.013C159.056 149.73 158.692 149.338 158.422 148.839C158.165 148.326 158.037 147.752 158.037 147.117C158.037 146.483 158.165 145.916 158.422 145.416C158.692 144.917 159.056 144.525 159.515 144.242C159.988 143.945 160.521 143.796 161.115 143.796C161.709 143.796 162.229 143.945 162.675 144.242C163.134 144.525 163.491 144.917 163.748 145.416C164.018 145.916 164.153 146.483 164.153 147.117C164.153 147.752 164.018 148.326 163.748 148.839C163.491 149.338 163.134 149.73 162.675 150.013C162.229 150.297 161.709 150.438 161.115 150.438ZM168.939 140.374H171.592V137.539H168.939V140.374ZM167.42 157.101C168.703 157.101 169.715 156.763 170.458 156.088C171.214 155.413 171.592 154.448 171.592 153.192V141.609H168.939V153.192C168.939 153.719 168.777 154.111 168.453 154.367C168.142 154.637 167.704 154.772 167.137 154.772C166.88 154.772 166.637 154.752 166.408 154.711V157.02C166.529 157.047 166.684 157.067 166.873 157.081C167.062 157.094 167.245 157.101 167.42 157.101ZM179.266 152.868C180.386 152.868 181.365 152.619 182.202 152.119C183.052 151.606 183.646 150.958 183.984 150.175L181.837 149.122C181.594 149.541 181.257 149.885 180.825 150.155C180.406 150.411 179.893 150.54 179.286 150.54C178.489 150.54 177.821 150.297 177.281 149.811C176.741 149.325 176.431 148.677 176.35 147.867H184.288C184.342 147.718 184.375 147.549 184.389 147.36C184.416 147.158 184.429 146.955 184.429 146.753C184.429 145.767 184.22 144.87 183.802 144.06C183.383 143.25 182.776 142.602 181.979 142.116C181.183 141.616 180.211 141.366 179.063 141.366C178.037 141.366 177.106 141.616 176.269 142.116C175.445 142.615 174.79 143.297 174.304 144.161C173.832 145.011 173.595 145.99 173.595 147.097C173.595 148.164 173.832 149.136 174.304 150.013C174.777 150.891 175.438 151.586 176.289 152.099C177.139 152.612 178.132 152.868 179.266 152.868ZM179.063 143.553C179.765 143.553 180.346 143.769 180.805 144.201C181.277 144.62 181.54 145.167 181.594 145.842H176.41C176.559 145.113 176.869 144.552 177.342 144.161C177.828 143.756 178.402 143.553 179.063 143.553ZM191.746 152.868C192.542 152.868 193.278 152.733 193.953 152.463C194.628 152.18 195.209 151.795 195.695 151.309C196.181 150.81 196.532 150.249 196.748 149.628L194.419 148.575C194.203 149.156 193.859 149.615 193.386 149.952C192.927 150.276 192.38 150.438 191.746 150.438C191.165 150.438 190.646 150.297 190.187 150.013C189.741 149.73 189.39 149.338 189.134 148.839C188.877 148.326 188.749 147.752 188.749 147.117C188.749 146.469 188.877 145.896 189.134 145.396C189.39 144.897 189.741 144.505 190.187 144.222C190.646 143.938 191.165 143.796 191.746 143.796C192.38 143.796 192.927 143.965 193.386 144.303C193.859 144.64 194.203 145.086 194.419 145.639L196.748 144.627C196.518 143.979 196.161 143.412 195.675 142.926C195.189 142.426 194.608 142.041 193.933 141.771C193.258 141.501 192.529 141.366 191.746 141.366C190.652 141.366 189.667 141.616 188.789 142.116C187.925 142.615 187.244 143.297 186.744 144.161C186.245 145.025 185.995 146.004 185.995 147.097C185.995 148.191 186.245 149.176 186.744 150.054C187.244 150.918 187.925 151.606 188.789 152.119C189.667 152.619 190.652 152.868 191.746 152.868ZM203.783 152.747C204.228 152.747 204.667 152.713 205.099 152.646V150.357C204.843 150.398 204.606 150.418 204.39 150.418C203.742 150.418 203.27 150.27 202.973 149.973C202.676 149.676 202.527 149.25 202.527 148.697V143.979H205.059V141.609H202.527V139.098H199.874V139.949C199.874 140.489 199.726 140.901 199.429 141.184C199.132 141.468 198.713 141.609 198.173 141.609H197.971V143.979H199.874V148.839C199.874 150.067 200.212 151.026 200.887 151.714C201.575 152.403 202.541 152.747 203.783 152.747ZM216.76 152.868C217.921 152.868 218.947 152.625 219.838 152.139C220.742 151.653 221.451 150.985 221.964 150.135C222.477 149.284 222.733 148.319 222.733 147.239V137.539H219.979V147.097C219.979 147.732 219.838 148.299 219.554 148.798C219.284 149.284 218.906 149.669 218.42 149.952C217.948 150.222 217.394 150.357 216.76 150.357C216.139 150.357 215.585 150.222 215.099 149.952C214.613 149.669 214.228 149.284 213.945 148.798C213.675 148.299 213.54 147.732 213.54 147.097V137.539H210.786V147.239C210.786 148.319 211.042 149.284 211.555 150.135C212.068 150.985 212.77 151.653 213.661 152.139C214.566 152.625 215.599 152.868 216.76 152.868ZM225.26 156.676H227.913V151.572C228.318 151.991 228.811 152.315 229.391 152.544C229.972 152.76 230.599 152.868 231.275 152.868C232.341 152.868 233.293 152.619 234.13 152.119C234.967 151.606 235.628 150.918 236.114 150.054C236.6 149.176 236.843 148.197 236.843 147.117C236.843 146.037 236.6 145.065 236.114 144.201C235.628 143.324 234.967 142.635 234.13 142.136C233.293 141.623 232.348 141.366 231.295 141.366C230.539 141.366 229.857 141.501 229.249 141.771C228.642 142.041 228.142 142.419 227.751 142.905V141.609H225.26V156.676ZM230.971 150.438C230.39 150.438 229.864 150.297 229.391 150.013C228.932 149.73 228.568 149.338 228.298 148.839C228.041 148.339 227.913 147.765 227.913 147.117C227.913 146.469 228.041 145.896 228.298 145.396C228.568 144.897 228.932 144.505 229.391 144.222C229.864 143.938 230.39 143.796 230.971 143.796C231.578 143.796 232.112 143.945 232.571 144.242C233.043 144.525 233.414 144.917 233.684 145.416C233.954 145.916 234.089 146.483 234.089 147.117C234.089 147.752 233.954 148.326 233.684 148.839C233.414 149.338 233.043 149.73 232.571 150.013C232.112 150.297 231.578 150.438 230.971 150.438ZM243.989 152.868C244.705 152.868 245.366 152.747 245.974 152.504C246.581 152.247 247.088 151.883 247.493 151.41V152.625H250.004V137.539H247.351V142.723C246.527 141.819 245.4 141.366 243.969 141.366C242.929 141.366 241.984 141.623 241.134 142.136C240.297 142.635 239.635 143.324 239.149 144.201C238.663 145.065 238.42 146.037 238.42 147.117C238.42 148.197 238.663 149.176 239.149 150.054C239.635 150.918 240.297 151.606 241.134 152.119C241.971 152.619 242.923 152.868 243.989 152.868ZM244.273 150.438C243.679 150.438 243.145 150.297 242.673 150.013C242.2 149.73 241.829 149.338 241.559 148.839C241.303 148.326 241.174 147.752 241.174 147.117C241.174 146.483 241.303 145.916 241.559 145.416C241.829 144.917 242.2 144.525 242.673 144.242C243.145 143.945 243.679 143.796 244.273 143.796C244.867 143.796 245.393 143.938 245.852 144.222C246.325 144.505 246.689 144.897 246.946 145.396C247.216 145.896 247.351 146.469 247.351 147.117C247.351 147.765 247.216 148.339 246.946 148.839C246.689 149.338 246.325 149.73 245.852 150.013C245.393 150.297 244.867 150.438 244.273 150.438ZM255.813 152.868C257.244 152.868 258.391 152.396 259.255 151.451V152.625H261.766V145.295C261.766 144.525 261.571 143.844 261.179 143.25C260.788 142.656 260.248 142.197 259.559 141.873C258.884 141.535 258.094 141.366 257.19 141.366C256.083 141.366 255.097 141.63 254.233 142.156C253.369 142.683 252.775 143.378 252.451 144.242L254.618 145.295C254.821 144.795 255.138 144.397 255.57 144.1C256.002 143.79 256.508 143.634 257.089 143.634C257.696 143.634 258.182 143.796 258.547 144.12C258.925 144.431 259.114 144.822 259.114 145.295V145.659L255.833 146.186C254.537 146.402 253.579 146.814 252.958 147.421C252.337 148.029 252.026 148.791 252.026 149.709C252.026 150.681 252.37 151.451 253.059 152.018C253.747 152.585 254.665 152.868 255.813 152.868ZM254.78 149.608C254.78 148.839 255.3 148.353 256.339 148.15L259.114 147.684V148.13C259.114 148.886 258.85 149.527 258.324 150.054C257.811 150.58 257.136 150.843 256.299 150.843C255.853 150.843 255.489 150.735 255.205 150.519C254.922 150.29 254.78 149.986 254.78 149.608ZM269.043 152.747C269.488 152.747 269.927 152.713 270.359 152.646V150.357C270.102 150.398 269.866 150.418 269.65 150.418C269.002 150.418 268.53 150.27 268.233 149.973C267.936 149.676 267.787 149.25 267.787 148.697V143.979H270.318V141.609H267.787V139.098H265.134V139.949C265.134 140.489 264.986 140.901 264.689 141.184C264.392 141.468 263.973 141.609 263.433 141.609H263.231V143.979H265.134V148.839C265.134 150.067 265.472 151.026 266.147 151.714C266.835 152.403 267.801 152.747 269.043 152.747ZM277.511 152.868C278.632 152.868 279.611 152.619 280.448 152.119C281.298 151.606 281.892 150.958 282.23 150.175L280.083 149.122C279.84 149.541 279.503 149.885 279.071 150.155C278.652 150.411 278.139 150.54 277.532 150.54C276.735 150.54 276.067 150.297 275.527 149.811C274.987 149.325 274.676 148.677 274.595 147.867H282.534C282.588 147.718 282.621 147.549 282.635 147.36C282.662 147.158 282.675 146.955 282.675 146.753C282.675 145.767 282.466 144.87 282.048 144.06C281.629 143.25 281.022 142.602 280.225 142.116C279.428 141.616 278.456 141.366 277.309 141.366C276.283 141.366 275.351 141.616 274.514 142.116C273.691 142.615 273.036 143.297 272.55 144.161C272.078 145.011 271.841 145.99 271.841 147.097C271.841 148.164 272.078 149.136 272.55 150.013C273.023 150.891 273.684 151.586 274.535 152.099C275.385 152.612 276.377 152.868 277.511 152.868ZM277.309 143.553C278.011 143.553 278.591 143.769 279.05 144.201C279.523 144.62 279.786 145.167 279.84 145.842H274.656C274.805 145.113 275.115 144.552 275.588 144.161C276.074 143.756 276.647 143.553 277.309 143.553ZM289.81 152.868C290.525 152.868 291.187 152.747 291.794 152.504C292.402 152.247 292.908 151.883 293.313 151.41V152.625H295.824V137.539H293.171V142.723C292.348 141.819 291.22 141.366 289.789 141.366C288.75 141.366 287.805 141.623 286.954 142.136C286.117 142.635 285.456 143.324 284.97 144.201C284.484 145.065 284.241 146.037 284.241 147.117C284.241 148.197 284.484 149.176 284.97 150.054C285.456 150.918 286.117 151.606 286.954 152.119C287.791 152.619 288.743 152.868 289.81 152.868ZM290.093 150.438C289.499 150.438 288.966 150.297 288.493 150.013C288.021 149.73 287.65 149.338 287.38 148.839C287.123 148.326 286.995 147.752 286.995 147.117C286.995 146.483 287.123 145.916 287.38 145.416C287.65 144.917 288.021 144.525 288.493 144.242C288.966 143.945 289.499 143.796 290.093 143.796C290.687 143.796 291.214 143.938 291.673 144.222C292.145 144.505 292.51 144.897 292.766 145.396C293.036 145.896 293.171 146.469 293.171 147.117C293.171 147.765 293.036 148.339 292.766 148.839C292.51 149.338 292.145 149.73 291.673 150.013C291.214 150.297 290.687 150.438 290.093 150.438Z" fill="#20484F"/>
<rect x="136.096" y="170.438" width="230.348" height="9.28142" rx="4.64071" fill="#20484F" fill-opacity="0.1"/>
<rect x="136.096" y="189.845" width="153.565" height="9.28142" rx="4.64071" fill="#20484F" fill-opacity="0.1"/>
<defs>
<filter id="filter0_d_2203_2199" x="0.249397" y="77.6245" width="432.008" height="197.441" filterUnits="userSpaceOnUse" color-interpolation-filters="sRGB">
<feFlood flood-opacity="0" result="BackgroundImageFix"/>
<feColorMatrix in="SourceAlpha" type="matrix" values="0 0 0 0 0 0 0 0 0 0 0 0 0 0 0 0 0 0 127 0" result="hardAlpha"/>
<feOffset dy="3.37506"/>
<feGaussianBlur stdDeviation="16.8753"/>
<feComposite in2="hardAlpha" operator="out"/>
<feColorMatrix type="matrix" values="0 0 0 0 0.541667 0 0 0 0 0.541667 0 0 0 0 0.541667 0 0 0 0.04 0"/>
<feBlend mode="normal" in2="BackgroundImageFix" result="effect1_dropShadow_2203_2199"/>
<feBlend mode="normal" in="SourceGraphic" in2="effect1_dropShadow_2203_2199" result="shape"/>
</filter>
<clipPath id="clip0_2203_2199">
<rect width="28.688" height="28.688" fill="white" transform="translate(72.8135 144.282)"/>
</clipPath>
</defs>
</svg>
