<svg width="357" height="393" viewBox="0 0 357 393" fill="none" xmlns="http://www.w3.org/2000/svg">
<path d="M0.479095 204.555C14.381 391.749 136.114 389.36 210.5 386C349.5 379.722 363.404 274.065 355.013 158.297C348.135 63.4088 311.269 15.8405 200.512 8.68855C19.4997 -3 0.479095 101.171 0.479095 204.555Z" fill="#20484F"/>
<g filter="url(#filter0_d_2203_2279)">
<g filter="url(#filter1_d_2203_2279)">
<rect x="68" y="43" width="222" height="302.232" rx="9.34737" fill="white"/>
</g>
<rect x="92.1475" y="293.821" width="178.379" height="28.8211" rx="6.23158" fill="#B8E4DA"/>
<circle cx="99.5475" cy="231.895" r="7.4" fill="#DCF2ED"/>
<g clip-path="url(#clip0_2203_2279)">
<path d="M98.4762 233.384L96.9874 231.895L96.4805 232.398L98.4762 234.394L102.76 230.11L102.257 229.606L98.4762 233.384Z" fill="#20484F"/>
</g>
<circle cx="99.5475" cy="207.748" r="7.4" fill="#DCF2ED"/>
<g clip-path="url(#clip1_2203_2279)">
<path d="M98.4762 209.236L96.9874 207.747L96.4805 208.251L98.4762 210.247L102.76 205.962L102.257 205.459L98.4762 209.236Z" fill="#20484F"/>
</g>
<circle cx="99.5475" cy="256.042" r="7.4" fill="#DCF2ED"/>
<g clip-path="url(#clip2_2203_2279)">
<path d="M98.4762 257.531L96.9874 256.042L96.4805 256.545L98.4762 258.541L102.76 254.257L102.257 253.753L98.4762 257.531Z" fill="#20484F"/>
</g>
<rect x="92.1475" y="144.263" width="121.516" height="8.56842" rx="4.28421" fill="#20484F" fill-opacity="0.1"/>
<rect x="92.1475" y="162.179" width="141.768" height="8.56842" rx="4.28421" fill="#20484F" fill-opacity="0.1"/>
<rect x="117.854" y="227.61" width="62.3158" height="8.56842" rx="4.28421" fill="#20484F" fill-opacity="0.1"/>
<rect x="117.854" y="251.758" width="103.6" height="8.56842" rx="4.28421" fill="#20484F" fill-opacity="0.1"/>
<rect x="117.854" y="203.463" width="62.3158" height="8.56842" rx="4.28421" fill="#20484F" fill-opacity="0.1"/>
<path d="M96.8866 125.158C97.6063 125.158 98.2373 125.027 98.7794 124.765C99.3216 124.504 99.7469 124.144 100.055 123.686C100.364 123.228 100.518 122.7 100.518 122.101C100.518 120.709 99.6861 119.746 98.0223 119.213L96.1014 118.61C95.7275 118.489 95.4424 118.32 95.2461 118.105C95.0592 117.881 94.9657 117.624 94.9657 117.334C94.9657 116.951 95.1106 116.643 95.4003 116.409C95.6995 116.166 96.0921 116.044 96.5781 116.044C97.1203 116.044 97.597 116.189 98.0083 116.479C98.4195 116.759 98.728 117.161 98.9337 117.685L100.504 116.984C100.224 116.199 99.7329 115.568 99.0318 115.091C98.3401 114.614 97.5222 114.376 96.5781 114.376C95.8958 114.376 95.2882 114.507 94.7554 114.768C94.2319 115.021 93.8206 115.376 93.5215 115.834C93.2318 116.292 93.0869 116.82 93.0869 117.418C93.0869 118.101 93.2925 118.694 93.7038 119.199C94.1151 119.694 94.7273 120.073 95.5406 120.335L97.5456 120.98C97.9101 121.101 98.1812 121.26 98.3588 121.456C98.5457 121.653 98.6392 121.905 98.6392 122.214C98.6392 122.597 98.485 122.905 98.1765 123.139C97.8774 123.373 97.4801 123.489 96.9847 123.489C96.3865 123.489 95.849 123.321 95.3723 122.985C94.8956 122.639 94.531 122.167 94.2787 121.569L92.6943 122.256C92.8812 122.835 93.1757 123.345 93.5776 123.784C93.9889 124.214 94.475 124.55 95.0358 124.793C95.606 125.036 96.2229 125.158 96.8866 125.158ZM105.558 125.074C105.867 125.074 106.17 125.051 106.469 125.004V123.419C106.292 123.447 106.128 123.461 105.979 123.461C105.53 123.461 105.203 123.359 104.997 123.153C104.792 122.947 104.689 122.653 104.689 122.27V119.003H106.441V117.362H104.689V115.624H102.852V116.213C102.852 116.586 102.749 116.872 102.544 117.068C102.338 117.264 102.048 117.362 101.674 117.362H101.534V119.003H102.852V122.368C102.852 123.218 103.086 123.882 103.553 124.359C104.03 124.836 104.698 125.074 105.558 125.074ZM111.422 125.158C112.198 125.158 112.875 124.985 113.455 124.639C114.044 124.284 114.455 123.835 114.689 123.293L113.202 122.564C113.034 122.854 112.8 123.092 112.501 123.279C112.212 123.457 111.856 123.546 111.436 123.546C110.884 123.546 110.422 123.377 110.048 123.041C109.674 122.704 109.459 122.256 109.403 121.695H114.899C114.936 121.592 114.96 121.475 114.969 121.344C114.988 121.204 114.997 121.064 114.997 120.924C114.997 120.241 114.852 119.62 114.562 119.059C114.273 118.498 113.852 118.049 113.301 117.713C112.749 117.367 112.076 117.194 111.281 117.194C110.571 117.194 109.926 117.367 109.347 117.713C108.776 118.059 108.323 118.531 107.987 119.129C107.659 119.718 107.496 120.396 107.496 121.162C107.496 121.9 107.659 122.573 107.987 123.181C108.314 123.789 108.772 124.27 109.361 124.625C109.949 124.98 110.637 125.158 111.422 125.158ZM111.281 118.708C111.768 118.708 112.169 118.858 112.487 119.157C112.814 119.447 112.997 119.825 113.034 120.293H109.445C109.548 119.788 109.763 119.4 110.09 119.129C110.426 118.849 110.823 118.708 111.281 118.708ZM116.389 127.794H118.226V124.261C118.507 124.55 118.848 124.775 119.25 124.934C119.652 125.083 120.086 125.158 120.554 125.158C121.292 125.158 121.951 124.985 122.531 124.639C123.11 124.284 123.568 123.807 123.905 123.209C124.241 122.601 124.409 121.924 124.409 121.176C124.409 120.428 124.241 119.755 123.905 119.157C123.568 118.549 123.11 118.073 122.531 117.727C121.951 117.372 121.297 117.194 120.568 117.194C120.044 117.194 119.572 117.288 119.152 117.474C118.731 117.661 118.385 117.923 118.114 118.26V117.362H116.389V127.794ZM120.343 123.475C119.941 123.475 119.577 123.377 119.25 123.181C118.932 122.985 118.68 122.714 118.493 122.368C118.315 122.022 118.226 121.625 118.226 121.176C118.226 120.727 118.315 120.33 118.493 119.984C118.68 119.638 118.932 119.367 119.25 119.171C119.577 118.975 119.941 118.877 120.343 118.877C120.764 118.877 121.133 118.979 121.451 119.185C121.778 119.381 122.035 119.652 122.222 119.998C122.409 120.344 122.503 120.737 122.503 121.176C122.503 121.615 122.409 122.013 122.222 122.368C122.035 122.714 121.778 122.985 121.451 123.181C121.133 123.377 120.764 123.475 120.343 123.475ZM132.031 125.158C132.77 125.158 133.443 124.99 134.05 124.653C134.658 124.307 135.144 123.835 135.509 123.237C135.873 122.63 136.055 121.943 136.055 121.176C136.055 120.41 135.873 119.727 135.509 119.129C135.153 118.531 134.672 118.059 134.064 117.713C133.457 117.367 132.779 117.194 132.031 117.194C131.274 117.194 130.592 117.367 129.984 117.713C129.377 118.059 128.891 118.531 128.526 119.129C128.171 119.727 127.993 120.41 127.993 121.176C127.993 121.943 128.171 122.625 128.526 123.223C128.891 123.821 129.377 124.293 129.984 124.639C130.601 124.985 131.284 125.158 132.031 125.158ZM132.031 123.475C131.62 123.475 131.251 123.377 130.924 123.181C130.606 122.985 130.354 122.714 130.167 122.368C129.989 122.013 129.9 121.615 129.9 121.176C129.9 120.737 129.989 120.344 130.167 119.998C130.354 119.652 130.606 119.381 130.924 119.185C131.251 118.979 131.62 118.877 132.031 118.877C132.443 118.877 132.803 118.979 133.111 119.185C133.429 119.381 133.677 119.652 133.854 119.998C134.041 120.344 134.135 120.737 134.135 121.176C134.135 121.615 134.041 122.013 133.854 122.368C133.677 122.714 133.429 122.985 133.111 123.181C132.803 123.377 132.443 123.475 132.031 123.475ZM137.448 124.99H139.285V120.517C139.285 120.022 139.425 119.624 139.706 119.325C139.996 119.026 140.369 118.877 140.827 118.877C141.285 118.877 141.655 119.026 141.935 119.325C142.225 119.615 142.37 120.012 142.37 120.517V124.99H144.207V120.082C144.207 119.512 144.085 119.012 143.842 118.582C143.599 118.143 143.258 117.802 142.818 117.559C142.388 117.316 141.893 117.194 141.332 117.194C140.856 117.194 140.426 117.288 140.042 117.474C139.668 117.661 139.379 117.937 139.173 118.302V117.362H137.448V124.99ZM149.377 125.158C150.153 125.158 150.831 124.985 151.41 124.639C151.999 124.284 152.41 123.835 152.644 123.293L151.158 122.564C150.99 122.854 150.756 123.092 150.457 123.279C150.167 123.457 149.812 123.546 149.391 123.546C148.84 123.546 148.377 123.377 148.003 123.041C147.629 122.704 147.414 122.256 147.358 121.695H152.854C152.892 121.592 152.915 121.475 152.924 121.344C152.943 121.204 152.953 121.064 152.953 120.924C152.953 120.241 152.808 119.62 152.518 119.059C152.228 118.498 151.807 118.049 151.256 117.713C150.704 117.367 150.031 117.194 149.237 117.194C148.527 117.194 147.882 117.367 147.302 117.713C146.732 118.059 146.278 118.531 145.942 119.129C145.615 119.718 145.451 120.396 145.451 121.162C145.451 121.9 145.615 122.573 145.942 123.181C146.269 123.789 146.727 124.27 147.316 124.625C147.905 124.98 148.592 125.158 149.377 125.158ZM149.237 118.708C149.723 118.708 150.125 118.858 150.443 119.157C150.77 119.447 150.952 119.825 150.99 120.293H147.4C147.503 119.788 147.718 119.4 148.045 119.129C148.382 118.849 148.779 118.708 149.237 118.708Z" fill="#20484F"/>
<path d="M93.4935 81.6948H96.036V76.5538H98.6906C99.6378 76.5538 100.473 76.3855 101.196 76.049C101.919 75.7 102.486 75.1953 102.897 74.5347C103.321 73.8742 103.533 73.0828 103.533 72.1605C103.533 71.2133 103.327 70.4157 102.916 69.7676C102.504 69.1195 101.931 68.6272 101.196 68.2907C100.473 67.9417 99.6378 67.7672 98.6906 67.7672H93.4935V81.6948ZM96.036 74.3104V70.0106H98.728C99.4135 70.0106 99.9619 70.2038 100.373 70.5901C100.784 70.9765 100.99 71.5 100.99 72.1605C100.99 72.8086 100.784 73.332 100.373 73.7309C99.9619 74.1172 99.4135 74.3104 98.728 74.3104H96.036ZM105.41 81.6948H107.859V76.0303C107.859 75.2576 108.071 74.6594 108.495 74.2356C108.931 73.7994 109.492 73.5813 110.177 73.5813H111.056V71.4127H110.458C109.835 71.4127 109.286 71.5249 108.813 71.7492C108.339 71.9736 107.971 72.3786 107.71 72.9644V71.5249H105.41V81.6948ZM117.375 81.9192C118.36 81.9192 119.257 81.6948 120.067 81.2462C120.877 80.785 121.526 80.1556 122.012 79.358C122.498 78.5479 122.741 77.6318 122.741 76.6099C122.741 75.5879 122.498 74.6781 122.012 73.8804C121.538 73.0828 120.896 72.4534 120.086 71.9923C119.276 71.5311 118.372 71.3005 117.375 71.3005C116.366 71.3005 115.456 71.5311 114.646 71.9923C113.836 72.4534 113.188 73.0828 112.702 73.8804C112.228 74.6781 111.991 75.5879 111.991 76.6099C111.991 77.6318 112.228 78.5416 112.702 79.3393C113.188 80.1369 113.836 80.7663 114.646 81.2275C115.468 81.6886 116.378 81.9192 117.375 81.9192ZM117.375 79.6758C116.827 79.6758 116.335 79.5449 115.898 79.2832C115.475 79.0215 115.138 78.66 114.889 78.1989C114.652 77.7253 114.534 77.1956 114.534 76.6099C114.534 76.0241 114.652 75.5006 114.889 75.0395C115.138 74.5784 115.475 74.2169 115.898 73.9552C116.335 73.681 116.827 73.5439 117.375 73.5439C117.924 73.5439 118.403 73.681 118.815 73.9552C119.239 74.2169 119.569 74.5784 119.806 75.0395C120.055 75.5006 120.179 76.0241 120.179 76.6099C120.179 77.1956 120.055 77.7253 119.806 78.1989C119.569 78.66 119.239 79.0215 118.815 79.2832C118.403 79.5449 117.924 79.6758 117.375 79.6758ZM124.598 70.3845H127.047V67.7672H124.598V70.3845ZM123.196 85.8264C124.38 85.8264 125.315 85.5148 126 84.8916C126.698 84.2685 127.047 83.3774 127.047 82.2183V71.5249H124.598V82.2183C124.598 82.7043 124.448 83.0658 124.149 83.3026C123.863 83.5518 123.458 83.6765 122.934 83.6765C122.697 83.6765 122.473 83.6578 122.261 83.6204V85.7516C122.373 85.7765 122.517 85.7952 122.691 85.8077C122.866 85.8201 123.034 85.8264 123.196 85.8264ZM134.131 81.9192C135.166 81.9192 136.069 81.6886 136.842 81.2275C137.627 80.7539 138.176 80.1556 138.487 79.4328L136.506 78.4606C136.281 78.847 135.97 79.1648 135.571 79.4141C135.184 79.6509 134.711 79.7693 134.15 79.7693C133.415 79.7693 132.798 79.5449 132.299 79.0963C131.801 78.6476 131.514 78.0493 131.439 77.3016H138.768C138.817 77.1645 138.849 77.0087 138.861 76.8342C138.886 76.6472 138.898 76.4603 138.898 76.2733C138.898 75.3635 138.705 74.5347 138.319 73.7869C137.933 73.0392 137.372 72.4409 136.636 71.9923C135.901 71.5311 135.004 71.3005 133.944 71.3005C132.997 71.3005 132.137 71.5311 131.364 71.9923C130.604 72.4534 130 73.0828 129.551 73.8804C129.115 74.6656 128.897 75.5692 128.897 76.5912C128.897 77.5757 129.115 78.4731 129.551 79.2832C129.987 80.0933 130.598 80.7352 131.383 81.2088C132.168 81.6824 133.084 81.9192 134.131 81.9192ZM133.944 73.3196C134.592 73.3196 135.128 73.519 135.552 73.9178C135.988 74.3042 136.231 74.8089 136.281 75.4321H131.495C131.632 74.7591 131.919 74.2419 132.355 73.8804C132.804 73.5065 133.334 73.3196 133.944 73.3196ZM145.653 81.9192C146.388 81.9192 147.068 81.7945 147.691 81.5453C148.314 81.2835 148.85 80.9283 149.298 80.4797C149.747 80.0185 150.071 79.5013 150.271 78.928L148.121 77.9559C147.921 78.4918 147.603 78.9155 147.167 79.2271C146.744 79.5262 146.239 79.6758 145.653 79.6758C145.117 79.6758 144.637 79.5449 144.213 79.2832C143.802 79.0215 143.478 78.66 143.241 78.1989C143.005 77.7253 142.886 77.1956 142.886 76.6099C142.886 76.0116 143.005 75.4819 143.241 75.0208C143.478 74.5597 143.802 74.1982 144.213 73.9365C144.637 73.6748 145.117 73.5439 145.653 73.5439C146.239 73.5439 146.744 73.6997 147.167 74.0113C147.603 74.3229 147.921 74.7341 148.121 75.2451L150.271 74.3104C150.059 73.7122 149.728 73.1887 149.28 72.74C148.831 72.2789 148.295 71.9237 147.672 71.6744C147.049 71.4252 146.376 71.3005 145.653 71.3005C144.643 71.3005 143.734 71.5311 142.924 71.9923C142.126 72.4534 141.497 73.0828 141.035 73.8804C140.574 74.6781 140.344 75.5816 140.344 76.5912C140.344 77.6007 140.574 78.5105 141.035 79.3206C141.497 80.1182 142.126 80.7539 142.924 81.2275C143.734 81.6886 144.643 81.9192 145.653 81.9192ZM156.765 81.807C157.176 81.807 157.581 81.7758 157.98 81.7135V79.601C157.743 79.6384 157.525 79.6571 157.326 79.6571C156.728 79.6571 156.292 79.52 156.017 79.2458C155.743 78.9716 155.606 78.579 155.606 78.068V73.7122H157.943V71.5249H155.606V69.2067H153.157V69.9919C153.157 70.4904 153.02 70.8706 152.746 71.1323C152.472 71.394 152.085 71.5249 151.587 71.5249H151.4V73.7122H153.157V78.1989C153.157 79.3331 153.469 80.2179 154.092 80.8536C154.727 81.4892 155.618 81.807 156.765 81.807ZM170.241 81.9192C171.275 81.9192 172.235 81.7384 173.12 81.377C174.005 81.0156 174.777 80.5108 175.438 79.8627C176.098 79.2147 176.609 78.4544 176.971 77.582C177.345 76.6971 177.532 75.7437 177.532 74.7217C177.532 73.6872 177.345 72.7338 176.971 71.8614C176.609 70.989 176.098 70.2349 175.438 69.5993C174.777 68.9512 174.005 68.4465 173.12 68.0851C172.235 67.7236 171.275 67.5429 170.241 67.5429C169.206 67.5429 168.247 67.7236 167.362 68.0851C166.477 68.4465 165.704 68.9512 165.044 69.5993C164.395 70.2349 163.884 70.989 163.511 71.8614C163.149 72.7338 162.968 73.6872 162.968 74.7217C162.968 75.7437 163.149 76.6971 163.511 77.582C163.884 78.4544 164.402 79.2147 165.062 79.8627C165.723 80.5108 166.495 81.0156 167.38 81.377C168.265 81.7384 169.219 81.9192 170.241 81.9192ZM170.241 79.601C169.343 79.601 168.533 79.3891 167.81 78.9654C167.1 78.5416 166.539 77.9621 166.128 77.2268C165.717 76.4915 165.511 75.6564 165.511 74.7217C165.511 73.7869 165.717 72.9581 166.128 72.2353C166.539 71.5 167.1 70.9204 167.81 70.4967C168.533 70.0729 169.343 69.8611 170.241 69.8611C171.15 69.8611 171.961 70.0729 172.671 70.4967C173.381 70.9204 173.942 71.5 174.353 72.2353C174.765 72.9581 174.97 73.7869 174.97 74.7217C174.97 75.6564 174.765 76.4915 174.353 77.2268C173.942 77.9621 173.381 78.5416 172.671 78.9654C171.961 79.3891 171.15 79.601 170.241 79.601ZM182.653 81.6948H184.821L188.822 71.5249H186.149L183.737 78.1615L181.325 71.5249H178.652L182.653 81.6948ZM194.816 81.9192C195.851 81.9192 196.754 81.6886 197.527 81.2275C198.312 80.7539 198.86 80.1556 199.172 79.4328L197.19 78.4606C196.966 78.847 196.655 79.1648 196.256 79.4141C195.869 79.6509 195.396 79.7693 194.835 79.7693C194.1 79.7693 193.483 79.5449 192.984 79.0963C192.486 78.6476 192.199 78.0493 192.124 77.3016H199.452C199.502 77.1645 199.534 77.0087 199.546 76.8342C199.571 76.6472 199.583 76.4603 199.583 76.2733C199.583 75.3635 199.39 74.5347 199.004 73.7869C198.617 73.0392 198.057 72.4409 197.321 71.9923C196.586 71.5311 195.689 71.3005 194.629 71.3005C193.682 71.3005 192.822 71.5311 192.049 71.9923C191.289 72.4534 190.685 73.0828 190.236 73.8804C189.8 74.6656 189.582 75.5692 189.582 76.5912C189.582 77.5757 189.8 78.4731 190.236 79.2832C190.672 80.0933 191.283 80.7352 192.068 81.2088C192.853 81.6824 193.769 81.9192 194.816 81.9192ZM194.629 73.3196C195.277 73.3196 195.813 73.519 196.237 73.9178C196.673 74.3042 196.916 74.8089 196.966 75.4321H192.18C192.317 74.7591 192.604 74.2419 193.04 73.8804C193.489 73.5065 194.019 73.3196 194.629 73.3196ZM201.44 81.6948H203.889V76.0303C203.889 75.2576 204.101 74.6594 204.524 74.2356C204.961 73.7994 205.522 73.5813 206.207 73.5813H207.086V71.4127H206.487C205.864 71.4127 205.316 71.5249 204.842 71.7492C204.369 71.9736 204.001 72.3786 203.739 72.9644V71.5249H201.44V81.6948ZM211.498 81.6948H213.667L217.667 71.5249H214.994L212.582 78.1615L210.171 71.5249H207.497L211.498 81.6948ZM219.021 70.3845H221.47V67.7672H219.021V70.3845ZM219.021 81.6948H221.47V71.5249H219.021V81.6948ZM228.554 81.9192C229.589 81.9192 230.492 81.6886 231.265 81.2275C232.05 80.7539 232.599 80.1556 232.91 79.4328L230.929 78.4606C230.704 78.847 230.393 79.1648 229.994 79.4141C229.608 79.6509 229.134 79.7693 228.573 79.7693C227.838 79.7693 227.221 79.5449 226.722 79.0963C226.224 78.6476 225.937 78.0493 225.862 77.3016H233.191C233.241 77.1645 233.272 77.0087 233.284 76.8342C233.309 76.6472 233.322 76.4603 233.322 76.2733C233.322 75.3635 233.128 74.5347 232.742 73.7869C232.356 73.0392 231.795 72.4409 231.059 71.9923C230.324 71.5311 229.427 71.3005 228.367 71.3005C227.42 71.3005 226.56 71.5311 225.788 71.9923C225.027 72.4534 224.423 73.0828 223.974 73.8804C223.538 74.6656 223.32 75.5692 223.32 76.5912C223.32 77.5757 223.538 78.4731 223.974 79.2832C224.41 80.0933 225.021 80.7352 225.806 81.2088C226.591 81.6824 227.507 81.9192 228.554 81.9192ZM228.367 73.3196C229.016 73.3196 229.551 73.519 229.975 73.9178C230.411 74.3042 230.654 74.8089 230.704 75.4321H225.918C226.056 74.7591 226.342 74.2419 226.778 73.8804C227.227 73.5065 227.757 73.3196 228.367 73.3196ZM237.739 81.6948H239.908L242.301 74.8339L244.656 81.6948H246.844L250.339 71.5249H247.76L245.628 77.9185L243.385 71.5249H241.216L238.954 77.9372L236.823 71.5249H234.243L237.739 81.6948Z" fill="#20484F"/>
</g>
<defs>
<filter id="filter0_d_2203_2279" x="22.8908" y="0.146264" width="312.218" height="392.45" filterUnits="userSpaceOnUse" color-interpolation-filters="sRGB">
<feFlood flood-opacity="0" result="BackgroundImageFix"/>
<feColorMatrix in="SourceAlpha" type="matrix" values="0 0 0 0 0 0 0 0 0 0 0 0 0 0 0 0 0 0 127 0" result="hardAlpha"/>
<feOffset dy="2.25546"/>
<feGaussianBlur stdDeviation="22.5546"/>
<feComposite in2="hardAlpha" operator="out"/>
<feColorMatrix type="matrix" values="0 0 0 0 0.741667 0 0 0 0 0.741667 0 0 0 0 0.741667 0 0 0 0.11 0"/>
<feBlend mode="normal" in2="BackgroundImageFix" result="effect1_dropShadow_2203_2279"/>
<feBlend mode="normal" in="SourceGraphic" in2="effect1_dropShadow_2203_2279" result="shape"/>
</filter>
<filter id="filter1_d_2203_2279" x="36.8421" y="14.9579" width="284.316" height="364.547" filterUnits="userSpaceOnUse" color-interpolation-filters="sRGB">
<feFlood flood-opacity="0" result="BackgroundImageFix"/>
<feColorMatrix in="SourceAlpha" type="matrix" values="0 0 0 0 0 0 0 0 0 0 0 0 0 0 0 0 0 0 127 0" result="hardAlpha"/>
<feOffset dy="3.11579"/>
<feGaussianBlur stdDeviation="15.5789"/>
<feComposite in2="hardAlpha" operator="out"/>
<feColorMatrix type="matrix" values="0 0 0 0 0.541667 0 0 0 0 0.541667 0 0 0 0 0.541667 0 0 0 0.04 0"/>
<feBlend mode="normal" in2="BackgroundImageFix" result="effect1_dropShadow_2203_2279"/>
<feBlend mode="normal" in="SourceGraphic" in2="effect1_dropShadow_2203_2279" result="shape"/>
</filter>
<clipPath id="clip0_2203_2279">
<rect width="8.56842" height="8.56842" fill="white" transform="translate(95.2632 227.61)"/>
</clipPath>
<clipPath id="clip1_2203_2279">
<rect width="8.56842" height="8.56842" fill="white" transform="translate(95.2632 203.463)"/>
</clipPath>
<clipPath id="clip2_2203_2279">
<rect width="8.56842" height="8.56842" fill="white" transform="translate(95.2632 251.758)"/>
</clipPath>
</defs>
</svg>
